<svg width="60" height="58" viewBox="0 0 60 58" fill="none" xmlns="http://www.w3.org/2000/svg">
<g filter="url(#filter0_d_15_11)">
<path d="M38 18V50M51.3333 50H8.66667C7.95942 50 7.28115 49.7191 6.78105 49.219C6.28095 48.7189 6 48.0406 6 47.3333V4.66667C6 3.95942 6.28095 3.28115 6.78105 2.78105C7.28115 2.28095 7.95942 2 8.66667 2H51.3333C52.0406 2 52.7189 2.28095 53.219 2.78105C53.7191 3.28115 54 3.95942 54 4.66667V47.3333C54 48.0406 53.7191 48.7189 53.219 49.219C52.7189 49.7191 52.0406 50 51.3333 50ZM6 18H54H6Z" stroke="#14213D" stroke-width="4" stroke-linecap="round" stroke-linejoin="round" shape-rendering="crispEdges"/>
</g>
<defs>
<filter id="filter0_d_15_11" x="0" y="0" width="60" height="60" filterUnits="userSpaceOnUse" color-interpolation-filters="sRGB">
<feFlood flood-opacity="0" result="BackgroundImageFix"/>
<feColorMatrix in="SourceAlpha" type="matrix" values="0 0 0 0 0 0 0 0 0 0 0 0 0 0 0 0 0 0 127 0" result="hardAlpha"/>
<feOffset dy="4"/>
<feGaussianBlur stdDeviation="2"/>
<feComposite in2="hardAlpha" operator="out"/>
<feColorMatrix type="matrix" values="0 0 0 0 0 0 0 0 0 0 0 0 0 0 0 0 0 0 0.25 0"/>
<feBlend mode="normal" in2="BackgroundImageFix" result="effect1_dropShadow_15_11"/>
<feBlend mode="normal" in="SourceGraphic" in2="effect1_dropShadow_15_11" result="shape"/>
</filter>
</defs>
</svg>
