<svg width="200" height="200" viewBox="0 0 200 200" fill="none" xmlns="http://www.w3.org/2000/svg">
<circle cx="3" cy="3" r="3" fill="#14213D"/>
<circle cx="18" cy="3" r="3" fill="#14213D"/>
<circle cx="33" cy="3" r="3" fill="#14213D"/>
<circle cx="48" cy="3" r="3" fill="#14213D"/>
<circle cx="63" cy="3" r="3" fill="#14213D"/>
<circle cx="78" cy="3" r="3" fill="#14213D"/>
<circle cx="93" cy="3" r="3" fill="#14213D"/>
<circle cx="108" cy="3" r="3" fill="#14213D"/>
<circle cx="123" cy="3" r="3" fill="#14213D"/>
<circle cx="138" cy="3" r="3" fill="#14213D"/>
<circle cx="153" cy="3" r="3" fill="#14213D"/>
<circle cx="168" cy="3" r="3" fill="#14213D"/>
<circle cx="183" cy="3" r="3" fill="#14213D"/>
<circle cx="3" cy="18" r="3" fill="#14213D"/>
<circle cx="18" cy="18" r="3" fill="#14213D"/>
<circle cx="33" cy="18" r="3" fill="#14213D"/>
<circle cx="48" cy="18" r="3" fill="#14213D"/>
<circle cx="63" cy="18" r="3" fill="#14213D"/>
<circle cx="78" cy="18" r="3" fill="#14213D"/>
<circle cx="93" cy="18" r="3" fill="#14213D"/>
<circle cx="108" cy="18" r="3" fill="#14213D"/>
<circle cx="123" cy="18" r="3" fill="#14213D"/>
<circle cx="138" cy="18" r="3" fill="#14213D"/>
<circle cx="153" cy="18" r="3" fill="#14213D"/>
<circle cx="168" cy="18" r="3" fill="#14213D"/>
<circle cx="183" cy="18" r="3" fill="#14213D"/>
<circle cx="3" cy="33" r="3" fill="#14213D"/>
<circle cx="18" cy="33" r="3" fill="#14213D"/>
<circle cx="33" cy="33" r="3" fill="#14213D"/>
<circle cx="48" cy="33" r="3" fill="#14213D"/>
<circle cx="63" cy="33" r="3" fill="#14213D"/>
<circle cx="78" cy="33" r="3" fill="#14213D"/>
<circle cx="93" cy="33" r="3" fill="#14213D"/>
<circle cx="108" cy="33" r="3" fill="#14213D"/>
<circle cx="123" cy="33" r="3" fill="#14213D"/>
<circle cx="138" cy="33" r="3" fill="#14213D"/>
<circle cx="153" cy="33" r="3" fill="#14213D"/>
<circle cx="168" cy="33" r="3" fill="#14213D"/>
<circle cx="183" cy="33" r="3" fill="#14213D"/>
<circle cx="3" cy="48" r="3" fill="#14213D"/>
<circle cx="18" cy="48" r="3" fill="#14213D"/>
<circle cx="33" cy="48" r="3" fill="#14213D"/>
<circle cx="48" cy="48" r="3" fill="#14213D"/>
<circle cx="63" cy="48" r="3" fill="#14213D"/>
<circle cx="78" cy="48" r="3" fill="#14213D"/>
<circle cx="93" cy="48" r="3" fill="#14213D"/>
<circle cx="108" cy="48" r="3" fill="#14213D"/>
<circle cx="123" cy="48" r="3" fill="#14213D"/>
<circle cx="138" cy="48" r="3" fill="#14213D"/>
<circle cx="153" cy="48" r="3" fill="#14213D"/>
<circle cx="168" cy="48" r="3" fill="#14213D"/>
<circle cx="183" cy="48" r="3" fill="#14213D"/>
<circle cx="3" cy="63" r="3" fill="#14213D"/>
<circle cx="18" cy="63" r="3" fill="#14213D"/>
<circle cx="33" cy="63" r="3" fill="#14213D"/>
<circle cx="48" cy="63" r="3" fill="#14213D"/>
<circle cx="63" cy="63" r="3" fill="#14213D"/>
<circle cx="78" cy="63" r="3" fill="#14213D"/>
<circle cx="93" cy="63" r="3" fill="#14213D"/>
<circle cx="108" cy="63" r="3" fill="#14213D"/>
<circle cx="123" cy="63" r="3" fill="#14213D"/>
<circle cx="138" cy="63" r="3" fill="#14213D"/>
<circle cx="153" cy="63" r="3" fill="#14213D"/>
<circle cx="168" cy="63" r="3" fill="#14213D"/>
<circle cx="183" cy="63" r="3" fill="#14213D"/>
<circle cx="3" cy="78" r="3" fill="#14213D"/>
<circle cx="18" cy="78" r="3" fill="#14213D"/>
<circle cx="33" cy="78" r="3" fill="#14213D"/>
<circle cx="48" cy="78" r="3" fill="#14213D"/>
<circle cx="63" cy="78" r="3" fill="#14213D"/>
<circle cx="78" cy="78" r="3" fill="#14213D"/>
<circle cx="93" cy="78" r="3" fill="#14213D"/>
<circle cx="108" cy="78" r="3" fill="#14213D"/>
<circle cx="123" cy="78" r="3" fill="#14213D"/>
<circle cx="138" cy="78" r="3" fill="#14213D"/>
<circle cx="153" cy="78" r="3" fill="#14213D"/>
<circle cx="168" cy="78" r="3" fill="#14213D"/>
<circle cx="183" cy="78" r="3" fill="#14213D"/>
<circle cx="3" cy="93" r="3" fill="#14213D"/>
<circle cx="18" cy="93" r="3" fill="#14213D"/>
<circle cx="33" cy="93" r="3" fill="#14213D"/>
<circle cx="48" cy="93" r="3" fill="#14213D"/>
<circle cx="63" cy="93" r="3" fill="#14213D"/>
<circle cx="78" cy="93" r="3" fill="#14213D"/>
<circle cx="93" cy="93" r="3" fill="#14213D"/>
<circle cx="108" cy="93" r="3" fill="#14213D"/>
<circle cx="123" cy="93" r="3" fill="#14213D"/>
<circle cx="138" cy="93" r="3" fill="#14213D"/>
<circle cx="153" cy="93" r="3" fill="#14213D"/>
<circle cx="168" cy="93" r="3" fill="#14213D"/>
<circle cx="183" cy="93" r="3" fill="#14213D"/>
<circle cx="3" cy="108" r="3" fill="#14213D"/>
<circle cx="18" cy="108" r="3" fill="#14213D"/>
<circle cx="33" cy="108" r="3" fill="#14213D"/>
<circle cx="48" cy="108" r="3" fill="#14213D"/>
<circle cx="63" cy="108" r="3" fill="#14213D"/>
<circle cx="78" cy="108" r="3" fill="#14213D"/>
<circle cx="93" cy="108" r="3" fill="#14213D"/>
<circle cx="108" cy="108" r="3" fill="#14213D"/>
<circle cx="123" cy="108" r="3" fill="#14213D"/>
<circle cx="138" cy="108" r="3" fill="#14213D"/>
<circle cx="153" cy="108" r="3" fill="#14213D"/>
<circle cx="168" cy="108" r="3" fill="#14213D"/>
<circle cx="183" cy="108" r="3" fill="#14213D"/>
<circle cx="3" cy="123" r="3" fill="#14213D"/>
<circle cx="18" cy="123" r="3" fill="#14213D"/>
<circle cx="33" cy="123" r="3" fill="#14213D"/>
<circle cx="48" cy="123" r="3" fill="#14213D"/>
<circle cx="63" cy="123" r="3" fill="#14213D"/>
<circle cx="78" cy="123" r="3" fill="#14213D"/>
<circle cx="93" cy="123" r="3" fill="#14213D"/>
<circle cx="108" cy="123" r="3" fill="#14213D"/>
<circle cx="123" cy="123" r="3" fill="#14213D"/>
<circle cx="138" cy="123" r="3" fill="#14213D"/>
<circle cx="153" cy="123" r="3" fill="#14213D"/>
<circle cx="168" cy="123" r="3" fill="#14213D"/>
<circle cx="183" cy="123" r="3" fill="#14213D"/>
<circle cx="3" cy="138" r="3" fill="#14213D"/>
<circle cx="18" cy="138" r="3" fill="#14213D"/>
<circle cx="33" cy="138" r="3" fill="#14213D"/>
<circle cx="48" cy="138" r="3" fill="#14213D"/>
<circle cx="63" cy="138" r="3" fill="#14213D"/>
<circle cx="78" cy="138" r="3" fill="#14213D"/>
<circle cx="93" cy="138" r="3" fill="#14213D"/>
<circle cx="108" cy="138" r="3" fill="#14213D"/>
<circle cx="123" cy="138" r="3" fill="#14213D"/>
<circle cx="138" cy="138" r="3" fill="#14213D"/>
<circle cx="153" cy="138" r="3" fill="#14213D"/>
<circle cx="168" cy="138" r="3" fill="#14213D"/>
<circle cx="183" cy="138" r="3" fill="#14213D"/>
<circle cx="3" cy="153" r="3" fill="#14213D"/>
<circle cx="18" cy="153" r="3" fill="#14213D"/>
<circle cx="33" cy="153" r="3" fill="#14213D"/>
<circle cx="48" cy="153" r="3" fill="#14213D"/>
<circle cx="63" cy="153" r="3" fill="#14213D"/>
<circle cx="78" cy="153" r="3" fill="#14213D"/>
<circle cx="93" cy="153" r="3" fill="#14213D"/>
<circle cx="108" cy="153" r="3" fill="#14213D"/>
<circle cx="123" cy="153" r="3" fill="#14213D"/>
<circle cx="138" cy="153" r="3" fill="#14213D"/>
<circle cx="153" cy="153" r="3" fill="#14213D"/>
<circle cx="168" cy="153" r="3" fill="#14213D"/>
<circle cx="183" cy="153" r="3" fill="#14213D"/>
<circle cx="3" cy="168" r="3" fill="#14213D"/>
<circle cx="18" cy="168" r="3" fill="#14213D"/>
<circle cx="33" cy="168" r="3" fill="#14213D"/>
<circle cx="48" cy="168" r="3" fill="#14213D"/>
<circle cx="63" cy="168" r="3" fill="#14213D"/>
<circle cx="78" cy="168" r="3" fill="#14213D"/>
<circle cx="93" cy="168" r="3" fill="#14213D"/>
<circle cx="108" cy="168" r="3" fill="#14213D"/>
<circle cx="123" cy="168" r="3" fill="#14213D"/>
<circle cx="138" cy="168" r="3" fill="#14213D"/>
<circle cx="153" cy="168" r="3" fill="#14213D"/>
<circle cx="168" cy="168" r="3" fill="#14213D"/>
<circle cx="183" cy="168" r="3" fill="#14213D"/>
<circle cx="3" cy="183" r="3" fill="#14213D"/>
<circle cx="18" cy="183" r="3" fill="#14213D"/>
<circle cx="33" cy="183" r="3" fill="#14213D"/>
<circle cx="48" cy="183" r="3" fill="#14213D"/>
<circle cx="63" cy="183" r="3" fill="#14213D"/>
<circle cx="78" cy="183" r="3" fill="#14213D"/>
<circle cx="93" cy="183" r="3" fill="#14213D"/>
<circle cx="108" cy="183" r="3" fill="#14213D"/>
<circle cx="123" cy="183" r="3" fill="#14213D"/>
<circle cx="138" cy="183" r="3" fill="#14213D"/>
<circle cx="153" cy="183" r="3" fill="#14213D"/>
<circle cx="168" cy="183" r="3" fill="#14213D"/>
<circle cx="183" cy="183" r="3" fill="#14213D"/>
</svg>
