<svg width="48" height="52" viewBox="0 0 48 52" fill="none" xmlns="http://www.w3.org/2000/svg">
<path d="M43.1467 6.8L24 2L4.85336 6.8C4.26169 6.946 3.73788 7.29026 3.36913 7.77545C3.00038 8.26065 2.80895 8.85751 2.82669 9.46667L3.97336 24.1867C4.38647 29.5241 6.25236 34.6468 9.36887 38.9995C12.4854 43.3523 16.7336 46.7692 21.6534 48.88L24 50L26.3467 48.9867C31.2664 46.8759 35.5147 43.459 38.6312 39.1062C41.7477 34.7534 43.6136 29.6308 44.0267 24.2933L45.1734 9.57333C45.2165 8.94636 45.0368 8.3243 44.666 7.8169C44.2952 7.30949 43.7571 6.94935 43.1467 6.8V6.8Z" stroke="#14213D" stroke-width="4" stroke-linecap="round" stroke-linejoin="round"/>
</svg>
