<svg width="64" height="64" viewBox="0 0 64 64" fill="none" xmlns="http://www.w3.org/2000/svg">
<path d="M32 42.6666C37.891 42.6666 42.6666 37.891 42.6666 31.9999C42.6666 26.1089 37.891 21.3333 32 21.3333C26.1089 21.3333 21.3333 26.1089 21.3333 31.9999C21.3333 37.891 26.1089 42.6666 32 42.6666Z" fill="#E5E5E5"/>
<path d="M48 8L42.6667 13.3333V21.3333H50.6667L56 16L50.6667 13.3333L48 8Z" fill="#FCA311"/>
<path d="M56 32C56 36.7468 54.5924 41.3869 51.9553 45.3337C49.3181 49.2805 45.5698 52.3566 41.1844 54.1731C36.799 55.9896 31.9734 56.4649 27.3178 55.5389C22.6623 54.6128 18.3859 52.327 15.0294 48.9706C11.673 45.6141 9.38721 41.3377 8.46116 36.6822C7.53512 32.0266 8.0104 27.201 9.8269 22.8156C11.6434 18.4302 14.7195 14.6819 18.6663 12.0447C22.6131 9.40758 27.2533 8 32 8L56 32ZM32 21.3333C29.8903 21.3333 27.8281 21.9589 26.0739 23.131C24.3198 24.3031 22.9526 25.969 22.1453 27.918C21.338 29.8671 21.1267 32.0118 21.5383 34.081C21.9499 36.1501 22.9658 38.0507 24.4575 39.5425C25.9493 41.0342 27.8499 42.0501 29.919 42.4617C31.9882 42.8733 34.1329 42.6621 36.082 41.8547C38.031 41.0474 39.697 39.6802 40.869 37.9261C42.0411 36.172 42.6667 34.1097 42.6667 32L32 21.3333ZM32 32L42.6667 21.3333L32 32ZM48 8L42.6667 13.3333V21.3333H50.6667L56 16L50.6667 13.3333L48 8Z" stroke="#14213D" stroke-width="4" stroke-linecap="round" stroke-linejoin="round"/>
</svg>
